<svg width="17" height="16" viewBox="0 0 17 16" fill="none" xmlns="http://www.w3.org/2000/svg">
<path fill-rule="evenodd" clip-rule="evenodd" d="M14.25 2.00024H2.25C1.69772 2.00024 1.25 2.44796 1.25 3.00024V13.0002C1.25 13.5525 1.69772 14.0002 2.25 14.0002H14.25C14.8023 14.0002 15.25 13.5525 15.25 13.0002V3.00024C15.25 2.44796 14.8023 2.00024 14.25 2.00024ZM2.25 1.00024C1.14543 1.00024 0.25 1.89567 0.25 3.00024V13.0002C0.25 14.1048 1.14543 15.0002 2.25 15.0002H14.25C15.3546 15.0002 16.25 14.1048 16.25 13.0002V3.00024C16.25 1.89567 15.3546 1.00024 14.25 1.00024H2.25Z" fill="black"/>
<path fill-rule="evenodd" clip-rule="evenodd" d="M6.25 9.00024C6.25 8.7241 6.47386 8.50024 6.75 8.50024H9.75C10.0261 8.50024 10.25 8.7241 10.25 9.00024C10.25 9.27639 10.0261 9.50024 9.75 9.50024H6.75C6.47386 9.50024 6.25 9.27639 6.25 9.00024Z" fill="black"/>
<path fill-rule="evenodd" clip-rule="evenodd" d="M3.39645 4.14669C3.59171 3.95143 3.90829 3.95143 4.10355 4.14669L6.10355 6.14669C6.29882 6.34195 6.29882 6.65854 6.10355 6.8538L4.10355 8.8538C3.90829 9.04906 3.59171 9.04906 3.39645 8.8538C3.20118 8.65854 3.20118 8.34195 3.39645 8.14669L5.04289 6.50024L3.39645 4.8538C3.20118 4.65854 3.20118 4.34195 3.39645 4.14669Z" fill="black"/>
</svg>
