<svg width="17" height="16" viewBox="0 0 17 16" fill="none" xmlns="http://www.w3.org/2000/svg">
<path fill-rule="evenodd" clip-rule="evenodd" d="M12.4158 8.93989C12.9452 7.8672 13.25 6.86203 13.25 6.00012C13.25 3.2387 11.0114 1.00012 8.25 1.00012C5.48858 1.00012 3.25 3.2387 3.25 6.00012C3.25 6.86203 3.5548 7.8672 4.08423 8.93989C4.60825 10.0016 5.31754 11.0602 6.04425 12.0102C6.76868 12.9571 7.49558 13.7769 8.04232 14.3606C8.11497 14.4382 8.18434 14.5114 8.25 14.5802C8.31566 14.5114 8.38503 14.4382 8.45768 14.3606C9.00442 13.7769 9.73132 12.9571 10.4558 12.0102C11.1825 11.0602 11.8918 10.0016 12.4158 8.93989ZM8.25 16.0001C8.25 16.0001 14.25 10.3138 14.25 6.00012C14.25 2.68641 11.5637 0.00012207 8.25 0.00012207C4.93629 0.00012207 2.25 2.68641 2.25 6.00012C2.25 10.3138 8.25 16.0001 8.25 16.0001Z" fill="black"/>
<path fill-rule="evenodd" clip-rule="evenodd" d="M8.25 8.00012C9.35457 8.00012 10.25 7.10469 10.25 6.00012C10.25 4.89555 9.35457 4.00012 8.25 4.00012C7.14543 4.00012 6.25 4.89555 6.25 6.00012C6.25 7.10469 7.14543 8.00012 8.25 8.00012ZM8.25 9.00012C9.90685 9.00012 11.25 7.65698 11.25 6.00012C11.25 4.34327 9.90685 3.00012 8.25 3.00012C6.59315 3.00012 5.25 4.34327 5.25 6.00012C5.25 7.65698 6.59315 9.00012 8.25 9.00012Z" fill="black"/>
</svg>
