<svg width="17" height="16" viewBox="0 0 17 16" fill="none" xmlns="http://www.w3.org/2000/svg">
<path fill-rule="evenodd" clip-rule="evenodd" d="M14.25 1H2.25C1.69772 1 1.25 1.44772 1.25 2V13.5858L3.25 11.5858C3.62507 11.2107 4.13378 11 4.66421 11H14.25C14.8023 11 15.25 10.5523 15.25 10V2C15.25 1.44772 14.8023 1 14.25 1ZM2.25 0C1.14543 0 0.25 0.895431 0.25 2V14.7929C0.25 15.2383 0.78857 15.4614 1.10355 15.1464L3.95711 12.2929C4.14464 12.1054 4.399 12 4.66421 12H14.25C15.3546 12 16.25 11.1046 16.25 10V2C16.25 0.895431 15.3546 0 14.25 0H2.25Z" fill="black"/>
<path fill-rule="evenodd" clip-rule="evenodd" d="M3.25 3.5C3.25 3.22386 3.47386 3 3.75 3H12.75C13.0261 3 13.25 3.22386 13.25 3.5C13.25 3.77614 13.0261 4 12.75 4H3.75C3.47386 4 3.25 3.77614 3.25 3.5ZM3.25 6C3.25 5.72386 3.47386 5.5 3.75 5.5H12.75C13.0261 5.5 13.25 5.72386 13.25 6C13.25 6.27614 13.0261 6.5 12.75 6.5H3.75C3.47386 6.5 3.25 6.27614 3.25 6ZM3.25 8.5C3.25 8.22386 3.47386 8 3.75 8H8.75C9.02614 8 9.25 8.22386 9.25 8.5C9.25 8.77614 9.02614 9 8.75 9H3.75C3.47386 9 3.25 8.77614 3.25 8.5Z" fill="black"/>
</svg>
