<svg width="13" height="16" viewBox="0 0 13 16" fill="none" xmlns="http://www.w3.org/2000/svg">
<path fill-rule="evenodd" clip-rule="evenodd" d="M6.25 0.000488281C6.41718 0.000488281 6.57329 0.0840389 6.66603 0.223138L9.66603 4.72314C9.76831 4.87657 9.77785 5.07384 9.69084 5.23642C9.60383 5.399 9.4344 5.50049 9.25 5.50049H9.15212L11.174 8.73549C11.2703 8.88962 11.2754 9.0839 11.1873 9.24287C11.0992 9.40185 10.9318 9.50049 10.75 9.50049H10.559L12.1972 12.7769C12.2747 12.9319 12.2664 13.1159 12.1753 13.2634C12.0842 13.4108 11.9233 13.5005 11.75 13.5005H0.750001C0.576712 13.5005 0.415778 13.4108 0.324675 13.2634C0.233572 13.1159 0.22529 12.9319 0.302787 12.7769L1.94098 9.50049H1.75C1.56824 9.50049 1.40079 9.40185 1.31268 9.24287C1.22457 9.0839 1.22967 8.88962 1.326 8.73549L3.34788 5.50049H3.25C3.0656 5.50049 2.89617 5.399 2.80916 5.23642C2.72215 5.07384 2.73169 4.87657 2.83398 4.72314L5.83398 0.223138C5.92671 0.0840389 6.08282 0.000488281 6.25 0.000488281ZM4.18426 4.50049H4.25C4.43176 4.50049 4.59921 4.59913 4.68732 4.7581C4.77543 4.91708 4.77033 5.11135 4.674 5.26549L2.65212 8.50049H2.75C2.92329 8.50049 3.08422 8.59021 3.17533 8.73762C3.26643 8.88503 3.27471 9.0691 3.19721 9.2241L1.55902 12.5005H10.941L9.30279 9.2241C9.22529 9.0691 9.23357 8.88503 9.32468 8.73762C9.41578 8.59021 9.57671 8.50049 9.75 8.50049H9.84788L7.826 5.26549C7.72967 5.11135 7.72457 4.91708 7.81268 4.7581C7.90079 4.59913 8.06824 4.50049 8.25 4.50049H8.31574L6.25 1.40188L4.18426 4.50049Z" fill="black"/>
<path d="M5.25 13.5005H7.25L7.25 16.0005H5.25L5.25 13.5005Z" fill="black"/>
</svg>
