<svg width="17" height="16" viewBox="0 0 17 16" fill="none" xmlns="http://www.w3.org/2000/svg">
<path fill-rule="evenodd" clip-rule="evenodd" d="M0.25 3.50073C0.25 2.67231 0.921573 2.00073 1.75 2.00073H10.75C11.5784 2.00073 12.25 2.67231 12.25 3.50073V5.00073H13.2694C13.7251 5.00073 14.156 5.20787 14.4407 5.56369L15.9213 7.41447C16.1341 7.68044 16.25 8.01091 16.25 8.35151V10.5007C16.25 11.3292 15.5784 12.0007 14.75 12.0007H14.25C14.25 13.1053 13.3546 14.0007 12.25 14.0007C11.1454 14.0007 10.25 13.1053 10.25 12.0007H5.25C5.25 13.1053 4.35457 14.0007 3.25 14.0007C2.14543 14.0007 1.25 13.1053 1.25 12.0007C1.25 11.9723 1.25059 11.9441 1.25176 11.916C0.668245 11.7106 0.25 11.1545 0.25 10.5007V3.50073ZM1.54396 10.9564C1.89562 10.3831 2.52815 10.0007 3.25 10.0007C3.99028 10.0007 4.63663 10.4029 4.98244 11.0007H10.5176C10.6932 10.6971 10.9464 10.4439 11.25 10.2683V3.50073C11.25 3.22459 11.0261 3.00073 10.75 3.00073H1.75C1.47386 3.00073 1.25 3.22459 1.25 3.50073V10.5007C1.25 10.7034 1.3706 10.8779 1.54396 10.9564ZM12.25 10.0007C12.9903 10.0007 13.6366 10.4029 13.9824 11.0007H14.75C15.0261 11.0007 15.25 10.7769 15.25 10.5007V8.35151C15.25 8.23798 15.2114 8.12782 15.1404 8.03917L13.6598 6.18839C13.5649 6.06978 13.4213 6.00073 13.2694 6.00073H12.25V10.0007ZM3.25 11.0007C2.69772 11.0007 2.25 11.4484 2.25 12.0007C2.25 12.553 2.69772 13.0007 3.25 13.0007C3.80228 13.0007 4.25 12.553 4.25 12.0007C4.25 11.4484 3.80228 11.0007 3.25 11.0007ZM12.25 11.0007C11.6977 11.0007 11.25 11.4484 11.25 12.0007C11.25 12.553 11.6977 13.0007 12.25 13.0007C12.8023 13.0007 13.25 12.553 13.25 12.0007C13.25 11.4484 12.8023 11.0007 12.25 11.0007Z" fill="black"/>
</svg>
